<svg width="927" height="843" viewBox="0 0 927 843" fill="none" xmlns="http://www.w3.org/2000/svg">
<g clip-path="url(#clip0_22_173)">
<path d="M881.96 237.453L673.23 237.453C669.263 237.453 665.458 235.877 662.652 233.072C659.847 230.266 658.271 226.461 658.271 222.494V70.542C658.271 66.5765 659.846 62.7734 662.65 59.9693C665.454 57.1653 669.257 55.59 673.223 55.59L881.967 55.59C885.932 55.59 889.736 57.1653 892.54 59.9693C895.344 62.7734 896.919 66.5765 896.919 70.542V222.494C896.919 226.461 895.343 230.266 892.538 233.072C889.732 235.877 885.927 237.453 881.96 237.453Z" fill="white"/>
<path d="M657.646 222.493V70.541C657.646 66.4097 659.287 62.4476 662.208 59.5264C665.13 56.6051 669.092 54.964 673.223 54.964H881.967C886.098 54.964 890.06 56.6051 892.982 59.5264C895.903 62.4476 897.544 66.4097 897.544 70.541V222.493C897.544 224.54 897.141 226.566 896.358 228.457C895.575 230.347 894.427 232.065 892.98 233.513C891.532 234.96 889.814 236.108 887.924 236.891C886.033 237.674 884.007 238.077 881.96 238.077H673.23C671.183 238.077 669.157 237.674 667.266 236.891C665.376 236.108 663.658 234.96 662.21 233.513C660.763 232.065 659.615 230.347 658.832 228.457C658.049 226.566 657.646 224.54 657.646 222.493ZM673.223 56.214C669.424 56.215 665.781 57.725 663.095 60.4117C660.409 63.0984 658.9 66.7419 658.9 70.541V222.493C658.9 226.295 660.41 229.941 663.098 232.629C665.786 235.317 669.432 236.827 673.234 236.827H881.96C885.762 236.827 889.408 235.317 892.096 232.629C894.784 229.941 896.294 226.295 896.294 222.493V70.541C896.294 66.7412 894.785 63.0971 892.098 60.4103C889.411 57.7234 885.767 56.214 881.967 56.214H673.223Z" fill="#292A2E"/>
<path d="M658.272 70.539V83.2H896.917V70.539C896.917 66.5735 895.342 62.7704 892.538 59.9664C889.734 57.1623 885.931 55.587 881.965 55.587H673.223C671.259 55.587 669.315 55.9738 667.501 56.7252C665.687 57.4766 664.039 58.578 662.651 59.9664C661.262 61.3549 660.161 63.0032 659.41 64.8172C658.658 66.6313 658.272 68.5756 658.272 70.539Z" fill="#292A2E"/>
<path d="M739.773 103.666H728.512C728.379 103.666 728.252 103.613 728.158 103.52C728.065 103.426 728.012 103.299 728.012 103.166C728.012 103.033 728.065 102.906 728.158 102.812C728.252 102.719 728.379 102.666 728.512 102.666H739.773C739.906 102.666 740.033 102.719 740.126 102.812C740.22 102.906 740.273 103.033 740.273 103.166C740.273 103.299 740.22 103.426 740.126 103.52C740.033 103.613 739.906 103.666 739.773 103.666Z" fill="#292A2E"/>
<path d="M720.391 103.666H716.13C715.997 103.666 715.87 103.613 715.776 103.52C715.683 103.426 715.63 103.299 715.63 103.166C715.63 103.033 715.683 102.906 715.776 102.812C715.87 102.719 715.997 102.666 716.13 102.666H720.391C720.524 102.666 720.651 102.719 720.745 102.812C720.838 102.906 720.891 103.033 720.891 103.166C720.891 103.299 720.838 103.426 720.745 103.52C720.651 103.613 720.524 103.666 720.391 103.666Z" fill="#367CFF"/>
<path d="M720.391 112.686H716.13C715.997 112.686 715.87 112.633 715.776 112.54C715.683 112.446 715.63 112.319 715.63 112.186C715.63 112.053 715.683 111.926 715.776 111.832C715.87 111.739 715.997 111.686 716.13 111.686H720.391C720.524 111.686 720.651 111.739 720.745 111.832C720.838 111.926 720.891 112.053 720.891 112.186C720.891 112.319 720.838 112.446 720.745 112.54C720.651 112.633 720.524 112.686 720.391 112.686Z" fill="#367CFF"/>
<path d="M720.391 121.706H716.13C715.997 121.706 715.87 121.653 715.776 121.56C715.683 121.466 715.63 121.339 715.63 121.206C715.63 121.073 715.683 120.946 715.776 120.853C715.87 120.759 715.997 120.706 716.13 120.706H720.391C720.524 120.706 720.651 120.759 720.745 120.853C720.838 120.946 720.891 121.073 720.891 121.206C720.891 121.339 720.838 121.466 720.745 121.56C720.651 121.653 720.524 121.706 720.391 121.706Z" fill="#367CFF"/>
<path d="M720.391 130.726H716.13C715.997 130.726 715.87 130.673 715.776 130.58C715.683 130.486 715.63 130.359 715.63 130.226C715.63 130.093 715.683 129.966 715.776 129.873C715.87 129.779 715.997 129.726 716.13 129.726H720.391C720.524 129.726 720.651 129.779 720.745 129.873C720.838 129.966 720.891 130.093 720.891 130.226C720.891 130.359 720.838 130.486 720.745 130.58C720.651 130.673 720.524 130.726 720.391 130.726Z" fill="#367CFF"/>
<path d="M720.391 139.746H716.13C715.997 139.746 715.87 139.693 715.776 139.6C715.683 139.506 715.63 139.379 715.63 139.246C715.63 139.113 715.683 138.986 715.776 138.892C715.87 138.799 715.997 138.746 716.13 138.746H720.391C720.524 138.746 720.651 138.799 720.745 138.892C720.838 138.986 720.891 139.113 720.891 139.246C720.891 139.379 720.838 139.506 720.745 139.6C720.651 139.693 720.524 139.746 720.391 139.746Z" fill="#367CFF"/>
<path d="M720.391 148.766H716.13C715.997 148.766 715.87 148.713 715.776 148.62C715.683 148.526 715.63 148.399 715.63 148.266C715.63 148.133 715.683 148.006 715.776 147.912C715.87 147.819 715.997 147.766 716.13 147.766H720.391C720.524 147.766 720.651 147.819 720.745 147.912C720.838 148.006 720.891 148.133 720.891 148.266C720.891 148.399 720.838 148.526 720.745 148.62C720.651 148.713 720.524 148.766 720.391 148.766Z" fill="#367CFF"/>
<path d="M720.391 157.786H716.13C715.997 157.786 715.87 157.733 715.776 157.64C715.683 157.546 715.63 157.419 715.63 157.286C715.63 157.153 715.683 157.026 715.776 156.932C715.87 156.839 715.997 156.786 716.13 156.786H720.391C720.524 156.786 720.651 156.839 720.745 156.932C720.838 157.026 720.891 157.153 720.891 157.286C720.891 157.419 720.838 157.546 720.745 157.64C720.651 157.733 720.524 157.786 720.391 157.786Z" fill="#367CFF"/>
<path d="M720.391 166.806H716.13C715.997 166.806 715.87 166.753 715.776 166.66C715.683 166.566 715.63 166.439 715.63 166.306C715.63 166.173 715.683 166.046 715.776 165.952C715.87 165.859 715.997 165.806 716.13 165.806H720.391C720.524 165.806 720.651 165.859 720.745 165.952C720.838 166.046 720.891 166.173 720.891 166.306C720.891 166.439 720.838 166.566 720.745 166.66C720.651 166.753 720.524 166.806 720.391 166.806Z" fill="#367CFF"/>
<path d="M720.391 175.826H716.13C715.997 175.826 715.87 175.773 715.776 175.68C715.683 175.586 715.63 175.459 715.63 175.326C715.63 175.193 715.683 175.066 715.776 174.972C715.87 174.879 715.997 174.826 716.13 174.826H720.391C720.524 174.826 720.651 174.879 720.745 174.972C720.838 175.066 720.891 175.193 720.891 175.326C720.891 175.459 720.838 175.586 720.745 175.68C720.651 175.773 720.524 175.826 720.391 175.826Z" fill="#367CFF"/>
<path d="M720.391 184.846H716.13C715.997 184.846 715.87 184.793 715.776 184.7C715.683 184.606 715.63 184.479 715.63 184.346C715.63 184.213 715.683 184.086 715.776 183.992C715.87 183.899 715.997 183.846 716.13 183.846H720.391C720.524 183.846 720.651 183.899 720.745 183.992C720.838 184.086 720.891 184.213 720.891 184.346C720.891 184.479 720.838 184.606 720.745 184.7C720.651 184.793 720.524 184.846 720.391 184.846Z" fill="#367CFF"/>
<path d="M720.391 193.866H716.13C715.997 193.866 715.87 193.813 715.776 193.72C715.683 193.626 715.63 193.499 715.63 193.366C715.63 193.233 715.683 193.106 715.776 193.012C715.87 192.919 715.997 192.866 716.13 192.866H720.391C720.524 192.866 720.651 192.919 720.745 193.012C720.838 193.106 720.891 193.233 720.891 193.366C720.891 193.499 720.838 193.626 720.745 193.72C720.651 193.813 720.524 193.866 720.391 193.866Z" fill="#367CFF"/>
<path d="M720.391 202.886H716.13C715.997 202.886 715.87 202.833 715.776 202.74C715.683 202.646 715.63 202.519 715.63 202.386C715.63 202.253 715.683 202.126 715.776 202.032C715.87 201.939 715.997 201.886 716.13 201.886H720.391C720.524 201.886 720.651 201.939 720.745 202.032C720.838 202.126 720.891 202.253 720.891 202.386C720.891 202.519 720.838 202.646 720.745 202.74C720.651 202.833 720.524 202.886 720.391 202.886Z" fill="#367CFF"/>
<path d="M720.391 211.906H716.13C715.997 211.906 715.87 211.853 715.776 211.76C715.683 211.666 715.63 211.539 715.63 211.406C715.63 211.273 715.683 211.146 715.776 211.052C715.87 210.959 715.997 210.906 716.13 210.906H720.391C720.524 210.906 720.651 210.959 720.745 211.052C720.838 211.146 720.891 211.273 720.891 211.406C720.891 211.539 720.838 211.666 720.745 211.76C720.651 211.853 720.524 211.906 720.391 211.906Z" fill="#367CFF"/>
<path d="M720.391 220.927H716.13C715.997 220.927 715.87 220.874 715.776 220.781C715.683 220.687 715.63 220.56 715.63 220.427C715.63 220.294 715.683 220.167 715.776 220.073C715.87 219.98 715.997 219.927 716.13 219.927H720.391C720.524 219.927 720.651 219.98 720.745 220.073C720.838 220.167 720.891 220.294 720.891 220.427C720.891 220.56 720.838 220.687 720.745 220.781C720.651 220.874 720.524 220.927 720.391 220.927Z" fill="#367CFF"/>
<path d="M748.773 112.686H738.512C738.379 112.686 738.252 112.633 738.158 112.54C738.065 112.446 738.012 112.319 738.012 112.186C738.012 112.053 738.065 111.926 738.158 111.832C738.252 111.739 738.379 111.686 738.512 111.686H748.773C748.906 111.686 749.033 111.739 749.126 111.832C749.22 111.926 749.273 112.053 749.273 112.186C749.273 112.319 749.22 112.446 749.126 112.54C749.033 112.633 748.906 112.686 748.773 112.686Z" fill="#292A2E"/>
<path d="M739.773 166.806H728.512C728.379 166.806 728.252 166.753 728.158 166.66C728.065 166.566 728.012 166.439 728.012 166.306C728.012 166.173 728.065 166.046 728.158 165.952C728.252 165.859 728.379 165.806 728.512 165.806H739.773C739.906 165.806 740.033 165.859 740.126 165.952C740.22 166.046 740.273 166.173 740.273 166.306C740.273 166.439 740.22 166.566 740.126 166.66C740.033 166.753 739.906 166.806 739.773 166.806Z" fill="#292A2E"/>
<path d="M748.773 175.826H738.512C738.379 175.826 738.252 175.773 738.158 175.679C738.065 175.586 738.012 175.459 738.012 175.326C738.012 175.193 738.065 175.066 738.158 174.972C738.252 174.879 738.379 174.826 738.512 174.826H748.773C748.906 174.826 749.033 174.879 749.126 174.972C749.22 175.066 749.273 175.193 749.273 175.326C749.273 175.459 749.22 175.586 749.126 175.679C749.033 175.773 748.906 175.826 748.773 175.826Z" fill="#292A2E"/>
<path d="M806.773 121.706H745.512C745.379 121.706 745.252 121.653 745.158 121.56C745.065 121.466 745.012 121.339 745.012 121.206C745.012 121.073 745.065 120.946 745.158 120.853C745.252 120.759 745.379 120.706 745.512 120.706H806.773C806.906 120.706 807.033 120.759 807.126 120.853C807.22 120.946 807.273 121.073 807.273 121.206C807.273 121.339 807.22 121.466 807.126 121.56C807.033 121.653 806.906 121.706 806.773 121.706Z" fill="#292A2E"/>
<path d="M860.86 121.706H817.6C817.467 121.706 817.34 121.653 817.246 121.56C817.153 121.466 817.1 121.339 817.1 121.206C817.1 121.073 817.153 120.946 817.246 120.853C817.34 120.759 817.467 120.706 817.6 120.706H860.86C860.992 120.706 861.12 120.759 861.213 120.853C861.307 120.946 861.36 121.073 861.36 121.206C861.36 121.339 861.307 121.466 861.213 121.56C861.12 121.653 860.992 121.706 860.86 121.706Z" fill="#0CBC8B"/>
<path d="M884.076 121.706H870.816C870.683 121.706 870.556 121.653 870.462 121.56C870.369 121.466 870.316 121.339 870.316 121.206C870.316 121.073 870.369 120.946 870.462 120.853C870.556 120.759 870.683 120.706 870.816 120.706H884.076C884.209 120.706 884.336 120.759 884.43 120.853C884.523 120.946 884.576 121.073 884.576 121.206C884.576 121.339 884.523 121.466 884.43 121.56C884.336 121.653 884.209 121.706 884.076 121.706Z" fill="#292A2E"/>
<path d="M836.773 139.746H745.512C745.379 139.746 745.252 139.693 745.158 139.6C745.065 139.506 745.012 139.379 745.012 139.246C745.012 139.113 745.065 138.986 745.158 138.892C745.252 138.799 745.379 138.746 745.512 138.746H836.773C836.906 138.746 837.033 138.799 837.126 138.892C837.22 138.986 837.273 139.113 837.273 139.246C837.273 139.379 837.22 139.506 837.126 139.6C837.033 139.693 836.906 139.746 836.773 139.746Z" fill="#292A2E"/>
<path d="M860.86 139.746H847.6C847.467 139.746 847.34 139.693 847.246 139.6C847.153 139.506 847.1 139.379 847.1 139.246C847.1 139.113 847.153 138.986 847.246 138.892C847.34 138.799 847.467 138.746 847.6 138.746H860.86C860.992 138.746 861.12 138.799 861.213 138.892C861.307 138.986 861.36 139.113 861.36 139.246C861.36 139.379 861.307 139.506 861.213 139.6C861.12 139.693 860.992 139.746 860.86 139.746Z" fill="#367CFF"/>
<path d="M756.773 130.726H745.512C745.379 130.726 745.252 130.673 745.158 130.58C745.065 130.486 745.012 130.359 745.012 130.226C745.012 130.093 745.065 129.966 745.158 129.872C745.252 129.779 745.379 129.726 745.512 129.726H756.773C756.906 129.726 757.033 129.779 757.126 129.872C757.22 129.966 757.273 130.093 757.273 130.226C757.273 130.359 757.22 130.486 757.126 130.58C757.033 130.673 756.906 130.726 756.773 130.726Z" fill="#0CBC8B"/>
<path d="M830.86 130.726H767.6C767.467 130.726 767.34 130.673 767.246 130.58C767.153 130.486 767.1 130.359 767.1 130.226C767.1 130.093 767.153 129.966 767.246 129.872C767.34 129.779 767.467 129.726 767.6 129.726H830.86C830.992 129.726 831.12 129.779 831.213 129.872C831.307 129.966 831.36 130.093 831.36 130.226C831.36 130.359 831.307 130.486 831.213 130.58C831.12 130.673 830.992 130.726 830.86 130.726Z" fill="#367CFF"/>
<path d="M884.163 130.726H842.9C842.767 130.726 842.64 130.673 842.546 130.58C842.453 130.486 842.4 130.359 842.4 130.226C842.4 130.093 842.453 129.966 842.546 129.872C842.64 129.779 842.767 129.726 842.9 129.726H884.161C884.293 129.726 884.421 129.779 884.514 129.872C884.608 129.966 884.661 130.093 884.661 130.226C884.661 130.359 884.608 130.486 884.514 130.58C884.421 130.673 884.293 130.726 884.161 130.726H884.163Z" fill="#292A2E"/>
<path d="M806.773 148.766H745.512C745.379 148.766 745.252 148.713 745.158 148.62C745.065 148.526 745.012 148.399 745.012 148.266C745.012 148.133 745.065 148.006 745.158 147.912C745.252 147.819 745.379 147.766 745.512 147.766H806.773C806.906 147.766 807.033 147.819 807.126 147.912C807.22 148.006 807.273 148.133 807.273 148.266C807.273 148.399 807.22 148.526 807.126 148.62C807.033 148.713 806.906 148.766 806.773 148.766Z" fill="#292A2E"/>
<path d="M840.86 148.766H817.6C817.467 148.766 817.34 148.713 817.246 148.62C817.153 148.526 817.1 148.399 817.1 148.266C817.1 148.133 817.153 148.006 817.246 147.912C817.34 147.819 817.467 147.766 817.6 147.766H840.86C840.992 147.766 841.12 147.819 841.213 147.912C841.307 148.006 841.36 148.133 841.36 148.266C841.36 148.399 841.307 148.526 841.213 148.62C841.12 148.713 840.992 148.766 840.86 148.766Z" fill="#0CBC8B"/>
<path d="M884.076 148.766H850.816C850.683 148.766 850.556 148.713 850.462 148.62C850.369 148.526 850.316 148.399 850.316 148.266C850.316 148.133 850.369 148.006 850.462 147.912C850.556 147.819 850.683 147.766 850.816 147.766H884.076C884.209 147.766 884.336 147.819 884.43 147.912C884.523 148.006 884.576 148.133 884.576 148.266C884.576 148.399 884.523 148.526 884.43 148.62C884.336 148.713 884.209 148.766 884.076 148.766Z" fill="#292A2E"/>
<path d="M756.773 157.786H745.512C745.379 157.786 745.252 157.733 745.158 157.64C745.065 157.546 745.012 157.419 745.012 157.286C745.012 157.153 745.065 157.026 745.158 156.932C745.252 156.839 745.379 156.786 745.512 156.786H756.773C756.906 156.786 757.033 156.839 757.126 156.932C757.22 157.026 757.273 157.153 757.273 157.286C757.273 157.419 757.22 157.546 757.126 157.64C757.033 157.733 756.906 157.786 756.773 157.786Z" fill="#367CFF"/>
<path d="M830.86 157.786H767.6C767.467 157.786 767.34 157.733 767.246 157.64C767.153 157.546 767.1 157.419 767.1 157.286C767.1 157.153 767.153 157.026 767.246 156.932C767.34 156.839 767.467 156.786 767.6 156.786H830.86C830.992 156.786 831.12 156.839 831.213 156.932C831.307 157.026 831.36 157.153 831.36 157.286C831.36 157.419 831.307 157.546 831.213 157.64C831.12 157.733 830.992 157.786 830.86 157.786Z" fill="#0CBC8B"/>
<path d="M804.773 193.866H743.512C743.379 193.866 743.252 193.813 743.158 193.72C743.065 193.626 743.012 193.499 743.012 193.366C743.012 193.233 743.065 193.106 743.158 193.012C743.252 192.919 743.379 192.866 743.512 192.866H804.773C804.906 192.866 805.033 192.919 805.126 193.012C805.22 193.106 805.273 193.233 805.273 193.366C805.273 193.499 805.22 193.626 805.126 193.72C805.033 193.813 804.906 193.866 804.773 193.866Z" fill="#292A2E"/>
<path d="M858.86 193.866H815.6C815.467 193.866 815.34 193.813 815.246 193.72C815.153 193.626 815.1 193.499 815.1 193.366C815.1 193.233 815.153 193.106 815.246 193.012C815.34 192.919 815.467 192.866 815.6 192.866H858.86C858.992 192.866 859.12 192.919 859.213 193.012C859.307 193.106 859.36 193.233 859.36 193.366C859.36 193.499 859.307 193.626 859.213 193.72C859.12 193.813 858.992 193.866 858.86 193.866Z" fill="#367CFF"/>
<path d="M774.773 184.846H743.512C743.379 184.846 743.252 184.793 743.158 184.7C743.065 184.606 743.012 184.479 743.012 184.346C743.012 184.213 743.065 184.086 743.158 183.992C743.252 183.899 743.379 183.846 743.512 183.846H774.773C774.906 183.846 775.033 183.899 775.126 183.992C775.22 184.086 775.273 184.213 775.273 184.346C775.273 184.479 775.22 184.606 775.126 184.7C775.033 184.793 774.906 184.846 774.773 184.846Z" fill="#0CBC8B"/>
<path d="M828.86 184.846H785.6C785.467 184.846 785.34 184.793 785.246 184.7C785.153 184.606 785.1 184.479 785.1 184.346C785.1 184.213 785.153 184.086 785.246 183.992C785.34 183.899 785.467 183.846 785.6 183.846H828.86C828.992 183.846 829.12 183.899 829.213 183.992C829.307 184.086 829.36 184.213 829.36 184.346C829.36 184.479 829.307 184.606 829.213 184.7C829.12 184.793 828.992 184.846 828.86 184.846Z" fill="#367CFF"/>
<path d="M882.163 184.846H840.9C840.767 184.846 840.64 184.793 840.546 184.7C840.453 184.606 840.4 184.479 840.4 184.346C840.4 184.213 840.453 184.086 840.546 183.992C840.64 183.899 840.767 183.846 840.9 183.846H882.161C882.293 183.846 882.421 183.899 882.514 183.992C882.608 184.086 882.661 184.213 882.661 184.346C882.661 184.479 882.608 184.606 882.514 184.7C882.421 184.793 882.293 184.846 882.161 184.846H882.163Z" fill="#292A2E"/>
<path d="M834.773 211.907H743.512C743.379 211.907 743.252 211.854 743.158 211.761C743.065 211.667 743.012 211.54 743.012 211.407C743.012 211.274 743.065 211.147 743.158 211.053C743.252 210.96 743.379 210.907 743.512 210.907H834.773C834.906 210.907 835.033 210.96 835.126 211.053C835.22 211.147 835.273 211.274 835.273 211.407C835.273 211.54 835.22 211.667 835.126 211.761C835.033 211.854 834.906 211.907 834.773 211.907Z" fill="#367CFF"/>
<path d="M858.86 211.907H845.6C845.467 211.907 845.34 211.854 845.246 211.761C845.153 211.667 845.1 211.54 845.1 211.407C845.1 211.274 845.153 211.147 845.246 211.053C845.34 210.96 845.467 210.907 845.6 210.907H858.86C858.992 210.907 859.12 210.96 859.213 211.053C859.307 211.147 859.36 211.274 859.36 211.407C859.36 211.54 859.307 211.667 859.213 211.761C859.12 211.854 858.992 211.907 858.86 211.907Z" fill="#292A2E"/>
<path d="M754.773 202.887H743.512C743.379 202.887 743.252 202.834 743.158 202.741C743.065 202.647 743.012 202.52 743.012 202.387C743.012 202.254 743.065 202.127 743.158 202.033C743.252 201.94 743.379 201.887 743.512 201.887H754.773C754.906 201.887 755.033 201.94 755.126 202.033C755.22 202.127 755.273 202.254 755.273 202.387C755.273 202.52 755.22 202.647 755.126 202.741C755.033 202.834 754.906 202.887 754.773 202.887Z" fill="#367CFF"/>
<path d="M828.86 202.887H765.6C765.467 202.887 765.34 202.834 765.246 202.741C765.153 202.647 765.1 202.52 765.1 202.387C765.1 202.254 765.153 202.127 765.246 202.033C765.34 201.94 765.467 201.887 765.6 201.887H828.86C828.992 201.887 829.12 201.94 829.213 202.033C829.307 202.127 829.36 202.254 829.36 202.387C829.36 202.52 829.307 202.647 829.213 202.741C829.12 202.834 828.992 202.887 828.86 202.887Z" fill="#292A2E"/>
<path d="M882.163 202.887H840.9C840.767 202.887 840.64 202.834 840.546 202.741C840.453 202.647 840.4 202.52 840.4 202.387C840.4 202.254 840.453 202.127 840.546 202.033C840.64 201.94 840.767 201.887 840.9 201.887H882.161C882.293 201.887 882.421 201.94 882.514 202.033C882.608 202.127 882.661 202.254 882.661 202.387C882.661 202.52 882.608 202.647 882.514 202.741C882.421 202.834 882.293 202.887 882.161 202.887H882.163Z" fill="#0CBC8B"/>
<path d="M804.773 220.927H743.512C743.379 220.927 743.252 220.874 743.158 220.781C743.065 220.687 743.012 220.56 743.012 220.427C743.012 220.294 743.065 220.167 743.158 220.073C743.252 219.98 743.379 219.927 743.512 219.927H804.773C804.906 219.927 805.033 219.98 805.126 220.073C805.22 220.167 805.273 220.294 805.273 220.427C805.273 220.56 805.22 220.687 805.126 220.781C805.033 220.874 804.906 220.927 804.773 220.927Z" fill="#0CBC8B"/>
<path d="M838.86 220.927H815.6C815.467 220.927 815.34 220.874 815.246 220.781C815.153 220.687 815.1 220.56 815.1 220.427C815.1 220.294 815.153 220.167 815.246 220.073C815.34 219.98 815.467 219.927 815.6 219.927H838.86C838.992 219.927 839.12 219.98 839.213 220.073C839.307 220.167 839.36 220.294 839.36 220.427C839.36 220.56 839.307 220.687 839.213 220.781C839.12 220.874 838.992 220.927 838.86 220.927Z" fill="#292A2E"/>
<path d="M882.076 220.927H848.816C848.683 220.927 848.556 220.874 848.462 220.781C848.369 220.687 848.316 220.56 848.316 220.427C848.316 220.294 848.369 220.167 848.462 220.073C848.556 219.98 848.683 219.927 848.816 219.927H882.076C882.209 219.927 882.336 219.98 882.43 220.073C882.523 220.167 882.576 220.294 882.576 220.427C882.576 220.56 882.523 220.687 882.43 220.781C882.336 220.874 882.209 220.927 882.076 220.927Z" fill="#367CFF"/>
<path d="M711.381 230.579C711.248 230.579 711.121 230.526 711.027 230.433C710.934 230.339 710.881 230.212 710.881 230.079V87.92C710.881 87.7874 710.934 87.6603 711.027 87.5665C711.121 87.4727 711.248 87.42 711.381 87.42C711.514 87.42 711.641 87.4727 711.735 87.5665C711.828 87.6603 711.881 87.7874 711.881 87.92V230.079C711.881 230.212 711.828 230.339 711.735 230.433C711.641 230.526 711.514 230.579 711.381 230.579Z" fill="#292A2E"/>
<path d="M878.838 78.417C883.268 78.417 886.86 74.8255 886.86 70.395C886.86 65.9646 883.268 62.373 878.838 62.373C874.408 62.373 870.816 65.9646 870.816 70.395C870.816 74.8255 874.408 78.417 878.838 78.417Z" fill="white"/>
<path d="M688.512 94.166H666.86C666.727 94.166 666.6 94.1133 666.506 94.0196C666.413 93.9258 666.36 93.7986 666.36 93.666C666.36 93.5334 666.413 93.4062 666.506 93.3125C666.6 93.2187 666.727 93.166 666.86 93.166H688.512C688.645 93.166 688.772 93.2187 688.866 93.3125C688.959 93.4062 689.012 93.5334 689.012 93.666C689.012 93.7986 688.959 93.9258 688.866 94.0196C688.772 94.1133 688.645 94.166 688.512 94.166Z" fill="#292A2E"/>
<path d="M681.989 104.028H666.86C666.727 104.028 666.6 103.975 666.506 103.882C666.413 103.788 666.36 103.661 666.36 103.528C666.36 103.395 666.413 103.268 666.506 103.175C666.6 103.081 666.727 103.028 666.86 103.028H681.989C682.122 103.028 682.249 103.081 682.343 103.175C682.436 103.268 682.489 103.395 682.489 103.528C682.489 103.661 682.436 103.788 682.343 103.882C682.249 103.975 682.122 104.028 681.989 104.028Z" fill="#292A2E"/>
<path d="M695.294 113.89H666.86C666.727 113.89 666.6 113.837 666.506 113.744C666.413 113.65 666.36 113.523 666.36 113.39C666.36 113.257 666.413 113.13 666.506 113.036C666.6 112.943 666.727 112.89 666.86 112.89H695.294C695.427 112.89 695.554 112.943 695.648 113.036C695.741 113.13 695.794 113.257 695.794 113.39C695.794 113.523 695.741 113.65 695.648 113.744C695.554 113.837 695.427 113.89 695.294 113.89Z" fill="#292A2E"/>
<path d="M700.6 123.752H676.86C676.727 123.752 676.6 123.699 676.506 123.606C676.413 123.512 676.36 123.385 676.36 123.252C676.36 123.119 676.413 122.992 676.506 122.898C676.6 122.805 676.727 122.752 676.86 122.752H700.6C700.733 122.752 700.86 122.805 700.954 122.898C701.047 122.992 701.1 123.119 701.1 123.252C701.1 123.385 701.047 123.512 700.954 123.606C700.86 123.699 700.733 123.752 700.6 123.752Z" fill="#292A2E"/>
<path d="M689.12 133.615H676.86C676.727 133.615 676.6 133.562 676.506 133.469C676.413 133.375 676.36 133.248 676.36 133.115C676.36 132.982 676.413 132.855 676.506 132.761C676.6 132.668 676.727 132.615 676.86 132.615H689.12C689.253 132.615 689.38 132.668 689.474 132.761C689.567 132.855 689.62 132.982 689.62 133.115C689.62 133.248 689.567 133.375 689.474 133.469C689.38 133.562 689.253 133.615 689.12 133.615Z" fill="#292A2E"/>
<path d="M698.512 143.477H676.86C676.727 143.477 676.6 143.424 676.506 143.331C676.413 143.237 676.36 143.11 676.36 142.977C676.36 142.844 676.413 142.717 676.506 142.623C676.6 142.53 676.727 142.477 676.86 142.477H698.512C698.645 142.477 698.772 142.53 698.866 142.623C698.959 142.717 699.012 142.844 699.012 142.977C699.012 143.11 698.959 143.237 698.866 143.331C698.772 143.424 698.645 143.477 698.512 143.477Z" fill="#292A2E"/>
<path d="M683.555 153.339H666.86C666.727 153.339 666.6 153.286 666.506 153.193C666.413 153.099 666.36 152.972 666.36 152.839C666.36 152.706 666.413 152.579 666.506 152.485C666.6 152.392 666.727 152.339 666.86 152.339H683.555C683.688 152.339 683.815 152.392 683.909 152.485C684.002 152.579 684.055 152.706 684.055 152.839C684.055 152.972 684.002 153.099 683.909 153.193C683.815 153.286 683.688 153.339 683.555 153.339Z" fill="#292A2E"/>
<path d="M677.816 163.2H666.86C666.727 163.2 666.6 163.147 666.506 163.054C666.413 162.96 666.36 162.833 666.36 162.7C666.36 162.567 666.413 162.44 666.506 162.346C666.6 162.253 666.727 162.2 666.86 162.2H677.816C677.949 162.2 678.076 162.253 678.17 162.346C678.263 162.44 678.316 162.567 678.316 162.7C678.316 162.833 678.263 162.96 678.17 163.054C678.076 163.147 677.949 163.2 677.816 163.2Z" fill="#292A2E"/>
<path d="M719.711 92.05V92.23L725.961 94.55C726.05 94.5864 726.127 94.6488 726.18 94.729C726.234 94.8092 726.262 94.9036 726.261 95V95.17C726.263 95.2451 726.245 95.3194 726.21 95.3859C726.175 95.4524 726.124 95.5088 726.061 95.55C725.998 95.5947 725.924 95.6227 725.847 95.6314C725.77 95.6402 725.692 95.6294 725.62 95.6L718.561 92.84C718.473 92.8048 718.397 92.7442 718.344 92.6658C718.29 92.5874 718.262 92.4949 718.261 92.4V91.89C718.26 91.7948 718.289 91.7017 718.342 91.6231C718.396 91.5444 718.472 91.4841 718.561 91.45L725.62 88.68C725.678 88.6604 725.739 88.6502 725.8 88.65C725.893 88.652 725.983 88.6797 726.061 88.73C726.124 88.7733 726.175 88.8316 726.21 88.8997C726.245 88.9678 726.263 89.0435 726.261 89.12V89.29C726.263 89.3855 726.235 89.4792 726.182 89.5581C726.128 89.637 726.051 89.6971 725.961 89.73L719.711 92.05Z" fill="#367CFF"/>
<path d="M732.1 86.64L728.36 98.09C728.33 98.1856 728.27 98.269 728.189 98.3283C728.108 98.3876 728.01 98.4197 727.91 98.42C727.838 98.4212 727.766 98.4044 727.701 98.3713C727.637 98.3381 727.581 98.2896 727.54 98.23C727.495 98.1709 727.465 98.1022 727.451 98.0293C727.437 97.9564 727.441 97.8814 727.461 97.81L731.2 86.37C731.232 86.2726 731.293 86.1876 731.376 86.1267C731.458 86.0658 731.558 86.032 731.66 86.03C731.732 86.0298 731.804 86.0469 731.868 86.0799C731.933 86.113 731.988 86.1611 732.03 86.22C732.075 86.2791 732.105 86.3482 732.117 86.4214C732.129 86.4946 732.123 86.5696 732.1 86.64Z" fill="#367CFF"/>
<path d="M741.284 91.8901V92.4001C741.285 92.494 741.259 92.5863 741.207 92.6647C741.155 92.7432 741.081 92.8043 740.994 92.84L733.924 95.6001C733.854 95.6291 733.778 95.6398 733.703 95.631C733.627 95.6223 733.556 95.5944 733.494 95.5501C733.43 95.5094 733.377 95.4532 733.341 95.3868C733.304 95.3205 733.284 95.2459 733.284 95.1701V95.0001C733.283 94.9023 733.313 94.8066 733.368 94.7261C733.423 94.6456 733.502 94.5841 733.594 94.5501L739.844 92.2301V92.0501L733.594 89.7301C733.502 89.6995 733.422 89.6403 733.367 89.5611C733.311 89.4819 733.282 89.3869 733.284 89.2901V89.1201C733.284 89.0428 733.304 88.9668 733.34 88.8988C733.377 88.8308 733.43 88.7729 733.494 88.7301C733.572 88.6799 733.662 88.6522 733.754 88.6501C733.812 88.6494 733.87 88.6596 733.924 88.6801L740.994 91.45C741.082 91.4847 741.157 91.5456 741.208 91.6243C741.26 91.703 741.287 91.7958 741.284 91.8901Z" fill="#367CFF"/>
<path d="M599.9 0H247.675V352.225H599.9V0Z" fill="#F4F4F4"/>
<path d="M247.675 0H243.638V352.225H247.675V0Z" fill="#F4F4F4"/>
<path opacity="0.05" d="M247.675 0H243.638V352.225H247.675V0Z" fill="#292A2E"/>
<path opacity="0.05" d="M333.003 242.712V150.558H408.491V204.098H525.421V298.895H575.118V352.225H525.421H515.847H264.619V242.712H333.003Z" fill="#292A2E"/>
<path opacity="0.34" d="M398.801 160.564H343.83V170.57H398.801V160.564Z" fill="#FFFFFA"/>
<path opacity="0.34" d="M398.801 181.298H343.83V191.304H398.801V181.298Z" fill="#FFFFFA"/>
<path opacity="0.34" d="M398.801 202.032H343.83V212.038H398.801V202.032Z" fill="#FFFFFA"/>
<path opacity="0.34" d="M284.498 252.424H274.366V262.43H284.498V252.424Z" fill="#FFFFFA"/>
<path opacity="0.34" d="M284.498 273.158H274.366V283.164H284.498V273.158Z" fill="#FFFFFA"/>
<path opacity="0.34" d="M284.498 293.893H274.366V303.899H284.498V293.893Z" fill="#FFFFFA"/>
<path opacity="0.34" d="M303.242 252.424H293.11V262.43H303.242V252.424Z" fill="#FFFFFA"/>
<path opacity="0.34" d="M303.242 273.158H293.11V283.164H303.242V273.158Z" fill="#FFFFFA"/>
<path opacity="0.34" d="M303.242 293.893H293.11V303.899H303.242V293.893Z" fill="#FFFFFA"/>
<path opacity="0.34" d="M321.48 252.424H311.348V262.43H321.48V252.424Z" fill="#FFFFFA"/>
<path opacity="0.34" d="M321.48 273.158H311.348V283.164H321.48V273.158Z" fill="#FFFFFA"/>
<path opacity="0.34" d="M321.48 293.893H311.348V303.899H321.48V293.893Z" fill="#FFFFFA"/>
<path d="M247.675 174.137H318.549V0H324.41V174.137H515.847V0H521.708V174.137H599.9V179.998H521.708V352.225H515.847V179.998H324.41V352.225H318.549V179.998H247.675V174.137Z" fill="white"/>
<path d="M613.932 351.8H233.644V363.514H613.932V351.8Z" fill="#F4F4F4"/>
<path opacity="0.1" d="M613.932 351.8H233.644V363.514H613.932V351.8Z" fill="#292A2E"/>
<path opacity="0.1" d="M233.644 351.8H228.153V363.514H233.644V351.8Z" fill="#292A2E"/>
<path opacity="0.1" d="M233.644 351.8H228.153V363.514H233.644V351.8Z" fill="#292A2E"/>
<path d="M243.638 14.996L599.9 14.996V6.28697L243.638 6.28697V14.996Z" fill="white"/>
<path d="M243.638 31.264L599.9 31.264V22.555L243.638 22.555V31.264Z" fill="white"/>
<path d="M243.638 47.531L599.9 47.531V38.822L243.638 38.822V47.531Z" fill="white"/>
<path d="M243.638 63.798L599.9 63.798V55.089L243.638 55.089V63.798Z" fill="white"/>
<path d="M243.638 80.064L599.9 80.064V71.355L243.638 71.355V80.064Z" fill="white"/>
<path d="M281.477 89.887H286.816V-3.8147e-05H281.477V89.887Z" fill="white"/>
<path d="M283.694 102.796C287.745 102.796 291.029 99.512 291.029 95.461C291.029 91.41 287.745 88.126 283.694 88.126C279.643 88.126 276.359 91.41 276.359 95.461C276.359 99.512 279.643 102.796 283.694 102.796Z" fill="white"/>
<path d="M246.748 841.816L244.784 841.438L275.48 536.407L277.444 536.785L246.748 841.816Z" fill="#494949"/>
<path d="M361.046 841.816L359.082 841.438L389.777 536.407L391.741 536.785L361.046 841.816Z" fill="#494949"/>
<path d="M613.694 841.816L615.658 841.438L584.962 536.407L582.998 536.785L613.694 841.816Z" fill="#494949"/>
<path d="M499.396 841.816L501.36 841.438L470.665 536.407L468.701 536.785L499.396 841.816Z" fill="#494949"/>
<path d="M458.689 402.162L456.707 402.427L474.638 536.731L476.621 536.466L458.689 402.162Z" fill="#494949"/>
<path d="M252.864 402.16L250.882 402.425L268.814 536.729L270.796 536.465L252.864 402.16Z" fill="#494949"/>
<path d="M476.448 526.761H275.128C269.696 526.761 265.293 531.164 265.293 536.596V536.597C265.293 542.029 269.696 546.432 275.128 546.432H476.448C481.88 546.432 486.283 542.029 486.283 536.597V536.596C486.283 531.164 481.88 526.761 476.448 526.761Z" fill="#292A2E"/>
<path opacity="0.8" d="M476.448 526.761H275.128C269.696 526.761 265.293 531.164 265.293 536.596V536.597C265.293 542.029 269.696 546.432 275.128 546.432H476.448C481.88 546.432 486.283 542.029 486.283 536.597V536.596C486.283 531.164 481.88 526.761 476.448 526.761Z" fill="white"/>
<path d="M476.448 547.431H275.129C273.706 547.431 272.297 547.151 270.983 546.606C269.668 546.062 268.474 545.264 267.467 544.258C266.461 543.251 265.663 542.057 265.119 540.742C264.574 539.428 264.294 538.019 264.294 536.596C264.294 535.173 264.574 533.764 265.119 532.45C265.663 531.135 266.461 529.941 267.467 528.935C268.474 527.928 269.668 527.13 270.983 526.586C272.297 526.041 273.706 525.761 275.129 525.761H476.448C477.871 525.761 479.28 526.041 480.594 526.586C481.909 527.13 483.103 527.928 484.109 528.935C485.116 529.941 485.914 531.135 486.458 532.45C487.003 533.764 487.283 535.173 487.283 536.596C487.283 538.019 487.003 539.428 486.458 540.742C485.914 542.057 485.116 543.251 484.109 544.258C483.103 545.264 481.909 546.062 480.594 546.606C479.28 547.151 477.871 547.431 476.448 547.431ZM275.129 527.761C273.969 527.761 272.82 527.99 271.748 528.434C270.676 528.878 269.702 529.528 268.882 530.349C268.061 531.169 267.41 532.143 266.966 533.215C266.522 534.287 266.294 535.436 266.294 536.596C266.294 537.756 266.522 538.905 266.966 539.977C267.41 541.049 268.061 542.023 268.882 542.843C269.702 543.664 270.676 544.314 271.748 544.758C272.82 545.202 273.969 545.431 275.129 545.431H476.448C477.608 545.431 478.757 545.202 479.829 544.758C480.901 544.314 481.875 543.664 482.695 542.843C483.516 542.023 484.166 541.049 484.61 539.977C485.054 538.905 485.283 537.756 485.283 536.596C485.283 535.436 485.054 534.287 484.61 533.215C484.166 532.143 483.516 531.169 482.695 530.349C481.875 529.528 480.901 528.878 479.829 528.434C478.757 527.99 477.608 527.761 476.448 527.761H275.129Z" fill="#292A2E"/>
<path d="M586.944 526.761H385.624C380.192 526.761 375.789 531.164 375.789 536.596V536.597C375.789 542.029 380.192 546.432 385.624 546.432H586.944C592.376 546.432 596.779 542.029 596.779 536.597V536.596C596.779 531.164 592.376 526.761 586.944 526.761Z" fill="white"/>
<path d="M586.944 547.431H385.624C384.201 547.431 382.792 547.151 381.477 546.606C380.163 546.062 378.968 545.264 377.962 544.258C376.956 543.251 376.158 542.057 375.614 540.742C375.069 539.428 374.789 538.019 374.789 536.596C374.789 535.173 375.069 533.764 375.614 532.45C376.158 531.135 376.956 529.941 377.962 528.935C378.968 527.928 380.163 527.13 381.477 526.586C382.792 526.041 384.201 525.761 385.624 525.761H586.944C588.367 525.761 589.776 526.041 591.09 526.586C592.405 527.13 593.599 527.928 594.605 528.935C595.611 529.941 596.41 531.135 596.954 532.45C597.499 533.764 597.779 535.173 597.779 536.596C597.779 538.019 597.499 539.428 596.954 540.742C596.41 542.057 595.611 543.251 594.605 544.258C593.599 545.264 592.405 546.062 591.09 546.606C589.776 547.151 588.367 547.431 586.944 547.431ZM385.624 527.761C384.464 527.761 383.315 527.99 382.243 528.434C381.171 528.878 380.197 529.528 379.377 530.349C378.556 531.169 377.905 532.143 377.461 533.215C377.017 534.287 376.789 535.436 376.789 536.596C376.789 537.756 377.017 538.905 377.461 539.977C377.905 541.049 378.556 542.023 379.377 542.843C380.197 543.664 381.171 544.314 382.243 544.758C383.315 545.202 384.464 545.431 385.624 545.431H586.944C588.104 545.431 589.253 545.202 590.325 544.758C591.397 544.314 592.371 543.664 593.191 542.843C594.012 542.023 594.662 541.049 595.106 539.977C595.55 538.905 595.779 537.756 595.779 536.596C595.779 535.436 595.55 534.287 595.106 533.215C594.662 532.143 594.012 531.169 593.191 530.349C592.371 529.528 591.397 528.878 590.325 528.434C589.253 527.99 588.104 527.761 586.944 527.761H385.624Z" fill="#292A2E"/>
<path d="M447.66 402.292H252.413C249.22 402.292 246.137 401.13 243.739 399.023C241.34 396.917 239.79 394.01 239.378 390.844L226.463 291.665C226.221 289.811 226.378 287.927 226.923 286.138C227.468 284.35 228.388 282.698 229.622 281.293C230.856 279.888 232.375 278.763 234.078 277.992C235.782 277.221 237.63 276.823 239.5 276.823H434.745C437.937 276.823 441.02 277.985 443.419 280.091C445.817 282.197 447.367 285.105 447.78 288.27L460.694 387.45C460.935 389.304 460.779 391.188 460.234 392.976C459.69 394.765 458.77 396.416 457.536 397.821C456.303 399.226 454.784 400.351 453.08 401.122C451.377 401.893 449.529 402.292 447.66 402.292Z" fill="#292A2E"/>
<path opacity="0.8" d="M447.66 402.292H252.413C249.22 402.292 246.137 401.13 243.739 399.023C241.34 396.917 239.79 394.01 239.378 390.844L226.463 291.665C226.221 289.811 226.378 287.927 226.923 286.138C227.468 284.35 228.388 282.698 229.622 281.293C230.856 279.888 232.375 278.763 234.078 277.992C235.782 277.221 237.63 276.823 239.5 276.823H434.745C437.937 276.823 441.02 277.985 443.419 280.091C445.817 282.197 447.367 285.105 447.78 288.27L460.694 387.45C460.935 389.304 460.779 391.188 460.234 392.976C459.69 394.765 458.77 396.416 457.536 397.821C456.303 399.226 454.784 400.351 453.08 401.122C451.377 401.893 449.529 402.292 447.66 402.292Z" fill="white"/>
<path d="M447.66 403.292H252.413C248.98 403.284 245.666 402.031 243.087 399.766C240.507 397.501 238.837 394.376 238.386 390.973L225.472 291.794C225.212 289.799 225.38 287.771 225.966 285.846C226.553 283.922 227.542 282.144 228.87 280.632C230.198 279.121 231.833 277.91 233.666 277.08C235.499 276.251 237.488 275.822 239.5 275.822H434.745C438.178 275.83 441.492 277.082 444.071 279.348C446.65 281.613 448.32 284.738 448.771 288.141L461.686 387.321C461.946 389.316 461.777 391.343 461.191 393.268C460.605 395.192 459.615 396.97 458.288 398.481C456.96 399.993 455.326 401.204 453.493 402.033C451.66 402.863 449.672 403.292 447.66 403.292ZM239.5 277.822C237.773 277.822 236.065 278.191 234.492 278.903C232.918 279.615 231.515 280.655 230.375 281.953C229.235 283.251 228.385 284.777 227.882 286.429C227.379 288.082 227.234 289.822 227.457 291.535L240.372 390.715C240.759 393.637 242.193 396.32 244.407 398.265C246.622 400.21 249.467 401.286 252.415 401.292H447.66C449.387 401.292 451.094 400.923 452.667 400.21C454.24 399.498 455.644 398.458 456.783 397.16C457.922 395.862 458.772 394.336 459.275 392.684C459.778 391.032 459.923 389.292 459.7 387.579L446.788 288.4C446.401 285.478 444.967 282.796 442.752 280.85C440.538 278.905 437.692 277.83 434.745 277.823L239.5 277.822Z" fill="#292A2E"/>
<path d="M458.7 402.292H263.453C260.261 402.292 257.178 401.13 254.779 399.023C252.381 396.917 250.831 394.009 250.419 390.844L237.5 291.665C237.259 289.811 237.415 287.927 237.96 286.139C238.505 284.35 239.425 282.698 240.658 281.294C241.892 279.889 243.411 278.764 245.114 277.993C246.817 277.222 248.665 276.823 250.535 276.823H445.786C448.978 276.823 452.061 277.985 454.459 280.091C456.858 282.197 458.408 285.105 458.82 288.27L471.735 387.45C471.976 389.304 471.819 391.188 471.275 392.976C470.73 394.765 469.81 396.417 468.577 397.821C467.343 399.226 465.824 400.351 464.121 401.122C462.417 401.893 460.569 402.292 458.7 402.292Z" fill="white"/>
<path d="M458.7 403.292H263.453C260.02 403.284 256.706 402.031 254.127 399.766C251.548 397.5 249.878 394.376 249.427 390.973L236.512 291.794C236.252 289.799 236.421 287.772 237.007 285.847C237.593 283.922 238.583 282.145 239.911 280.633C241.238 279.122 242.873 277.911 244.706 277.081C246.538 276.251 248.527 275.822 250.539 275.822H445.785C449.218 275.83 452.532 277.083 455.111 279.348C457.691 281.613 459.361 284.738 459.812 288.141L472.727 387.321C472.986 389.316 472.818 391.343 472.231 393.268C471.645 395.192 470.655 396.969 469.328 398.481C468 399.992 466.366 401.203 464.533 402.033C462.7 402.863 460.712 403.292 458.7 403.292ZM250.539 277.822C248.812 277.823 247.105 278.192 245.532 278.905C243.959 279.617 242.556 280.657 241.416 281.955C240.277 283.253 239.428 284.779 238.925 286.431C238.422 288.083 238.277 289.823 238.5 291.536L251.41 390.715C251.797 393.637 253.231 396.319 255.446 398.264C257.66 400.209 260.505 401.285 263.453 401.292H458.7C460.427 401.292 462.135 400.923 463.708 400.211C465.282 399.499 466.685 398.459 467.825 397.161C468.965 395.863 469.815 394.337 470.318 392.685C470.821 391.033 470.966 389.292 470.743 387.579L457.828 288.4C457.441 285.478 456.007 282.795 453.792 280.85C451.578 278.905 448.733 277.829 445.785 277.823L250.539 277.822Z" fill="#292A2E"/>
<path d="M610.471 424.937L608.481 425.138L650.639 842.487L652.628 842.286L610.471 424.937Z" fill="#494949"/>
<path d="M437.659 124.563C437.659 124.563 450.633 114.77 453.848 92.2281C456.337 74.7751 440.237 86.0821 440.237 86.0821C440.237 86.0821 441.907 73.4971 432.737 74.7461C423.567 75.9951 418.437 89.2151 418.437 89.2151" fill="#0C0C0C"/>
<path d="M385.348 76.219C385.348 76.219 339.853 81.1 356.3 142.744L360.326 143.014L368.498 143.562" fill="#0C0C0C"/>
<path d="M430.039 207.126C429.839 207.1 427.619 243.926 384.833 240.719C355.213 238.5 344.652 207.074 343.973 207.074C347.167 206.396 351.113 205.365 352.682 205.012C356.1 204.218 359.196 202.403 361.557 199.807C363.918 197.211 365.433 193.958 365.9 190.48C366.767 185.26 365.3 158.552 365.749 153.27L411.216 163.418C410.581 174.574 406.134 200.435 421.716 205.012C424.313 205.769 427.106 206.465 430.039 207.126Z" fill="#E98862"/>
<path opacity="0.52" d="M411.855 194.443C411.143 192.148 410.684 189.781 410.487 187.386C409.988 181.921 410.088 176.417 410.787 170.973C401.546 169.726 392.84 165.912 385.658 159.964C384.814 163.082 380.171 176.706 381.458 179.669C383.883 185.271 395.3 194.443 411.855 194.443Z" fill="#0C0C0C"/>
<path d="M402.471 187.154C384.533 185.545 363.064 174.212 362.755 149.863L362.475 127.893C362.166 103.545 374.703 83.6441 397.629 83.3521C420.554 83.0611 437.941 102.581 438.25 126.93L438.374 136.656C438.358 139.996 438.114 143.332 437.645 146.639C436.469 155.389 434.645 168.692 428.708 177.691C423.1 186.187 413.93 188.181 402.471 187.154Z" fill="#E98862"/>
<path d="M410.793 164.9C414.495 165.068 418.184 164.363 421.563 162.843C421.633 162.813 421.696 162.77 421.749 162.716C421.802 162.661 421.844 162.597 421.873 162.527C421.901 162.456 421.915 162.381 421.914 162.305C421.914 162.229 421.898 162.154 421.868 162.084C421.838 162.014 421.795 161.951 421.741 161.898C421.686 161.845 421.622 161.803 421.552 161.774C421.481 161.746 421.406 161.732 421.33 161.733C421.254 161.733 421.179 161.749 421.109 161.779C413.829 164.884 407.218 164.429 401.992 160.464C401.887 160.38 401.777 160.303 401.663 160.231C401.532 160.17 401.382 160.161 401.244 160.205C401.106 160.248 400.99 160.342 400.918 160.468C400.845 160.593 400.823 160.741 400.854 160.883C400.886 161.024 400.969 161.148 401.088 161.231C401.13 161.257 401.197 161.31 401.288 161.383C404.036 163.475 407.345 164.7 410.793 164.9Z" fill="#0C0C0C"/>
<path d="M410.62 170.383C411.289 170.424 411.96 170.408 412.626 170.335C412.778 170.319 412.918 170.243 413.015 170.123C413.111 170.004 413.156 169.852 413.14 169.699C413.124 169.547 413.048 169.407 412.928 169.31C412.809 169.214 412.656 169.169 412.504 169.185C408.497 169.611 406.585 167.775 406.504 167.696C406.395 167.587 406.248 167.526 406.095 167.526C405.942 167.526 405.794 167.587 405.686 167.695C405.577 167.803 405.516 167.95 405.516 168.104C405.516 168.257 405.576 168.404 405.685 168.513C407.064 169.688 408.808 170.349 410.62 170.383Z" fill="#0C0C0C"/>
<path d="M430.679 141.338C432.239 141.338 433.503 140.074 433.503 138.514C433.503 136.954 432.239 135.69 430.679 135.69C429.119 135.69 427.855 136.954 427.855 138.514C427.855 140.074 429.119 141.338 430.679 141.338Z" fill="#0C0C0C"/>
<path d="M403.091 139.607C404.651 139.607 405.915 138.343 405.915 136.783C405.915 135.223 404.651 133.959 403.091 133.959C401.531 133.959 400.267 135.223 400.267 136.783C400.267 138.343 401.531 139.607 403.091 139.607Z" fill="#0C0C0C"/>
<path d="M364.273 157.263C357.306 157.352 351.564 149.97 351.473 143.003C351.382 136.036 356.983 132.122 363.95 132.034L367.599 136.656L370.261 157.187L364.273 157.263Z" fill="#E98862"/>
<path d="M371.2 146.068C371.2 146.068 373.553 111.615 384 109.487C390.958 108.07 407.831 117.94 423.459 114.959C430.297 113.659 436.788 115.347 437.448 118.577C437.709 119.856 441.969 101.477 431.262 87.533C422.737 76.428 394.839 73.293 382.147 76.933C347.004 87.015 362.512 133.55 362.512 133.55L364.079 145.428L371.2 146.068Z" fill="#0C0C0C"/>
<path d="M415 156.767H415.045C417.29 156.744 421.053 156.456 421.038 154.776C421.023 153.384 417.063 138.401 416.61 136.697C416.567 136.556 416.47 136.436 416.341 136.364C416.212 136.293 416.059 136.274 415.916 136.311C415.773 136.349 415.651 136.441 415.574 136.568C415.497 136.694 415.472 136.846 415.505 136.99C417.264 143.626 419.884 153.842 419.895 154.79C419.678 155.19 417.359 155.602 415.034 155.626C414.887 155.629 414.747 155.688 414.643 155.792C414.539 155.895 414.479 156.034 414.474 156.181C414.47 156.327 414.522 156.47 414.62 156.579C414.718 156.689 414.854 156.756 415 156.768V156.767Z" fill="#0C0C0C"/>
<path d="M422.664 123.2C425.023 122.551 427.514 122.551 429.874 123.2C431.033 123.511 432.139 123.996 433.154 124.636C434.157 125.263 435.078 126.014 435.893 126.872C436.049 127.023 436.14 127.23 436.146 127.447C436.151 127.665 436.072 127.876 435.924 128.035C435.776 128.195 435.572 128.29 435.355 128.301C435.137 128.311 434.925 128.236 434.762 128.092L434.711 128.048C433.956 127.349 433.116 126.748 432.211 126.259C431.323 125.773 430.366 125.423 429.374 125.223C427.42 124.813 425.393 124.927 423.497 125.552L423.417 125.58C423.104 125.691 422.76 125.672 422.461 125.529C422.161 125.386 421.931 125.13 421.82 124.817C421.71 124.505 421.728 124.161 421.871 123.861C422.014 123.562 422.27 123.332 422.583 123.221L422.664 123.2Z" fill="#0C0C0C"/>
<path d="M405.956 124.619C404.16 123.746 402.167 123.364 400.176 123.51C399.165 123.576 398.171 123.794 397.226 124.158C396.265 124.523 395.354 125.007 394.514 125.598L394.46 125.634C394.279 125.75 394.061 125.791 393.851 125.75C393.641 125.709 393.454 125.589 393.331 125.414C393.207 125.239 393.155 125.024 393.186 124.812C393.217 124.6 393.329 124.408 393.498 124.276C394.42 123.534 395.433 122.912 396.511 122.424C397.603 121.925 398.763 121.593 399.953 121.438C402.378 121.107 404.847 121.438 407.1 122.396C407.405 122.529 407.645 122.777 407.767 123.086C407.888 123.396 407.882 123.741 407.75 124.046C407.617 124.351 407.369 124.591 407.059 124.713C406.75 124.835 406.405 124.829 406.1 124.696L406.031 124.663L405.956 124.619Z" fill="#0C0C0C"/>
<path d="M419.306 99.4841C424.463 98.4067 427.358 91.3802 425.772 83.79C424.186 76.1998 418.72 70.9202 413.563 71.9976C408.406 73.0751 405.511 80.1015 407.097 87.6917C408.683 95.2819 414.149 100.562 419.306 99.4841Z" fill="#0C0C0C"/>
<path d="M706.921 789.739C706.921 789.739 712.283 817.532 738.305 819.081C764.327 820.63 758.685 841.361 758.685 841.361H659.241V791.677L706.921 789.739Z" fill="#8C4BFF"/>
<path d="M517.733 772.191C517.733 772.191 510.276 799.497 532.943 812.373C555.61 825.249 541.395 841.361 541.395 841.361L452.163 797.461L474.094 752.879L517.733 772.191Z" fill="#8C4BFF"/>
<path d="M462.466 764.478L537.715 527.088H401.315C373.915 527.088 362.493 503.853 362.493 476.455C362.493 449.057 389.429 425.039 416.827 425.039H600.917C617.628 425.039 636.366 435.259 645.538 449.229C654.71 463.199 652.23 484.846 645.585 500.18L525.085 792.846" fill="#262626"/>
<path opacity="0.8" d="M462.466 764.478L537.715 527.088H401.315C373.915 527.088 362.493 503.853 362.493 476.455C362.493 449.057 389.429 425.039 416.827 425.039H600.917C617.628 425.039 636.366 435.259 645.538 449.229C654.71 463.199 652.23 484.846 645.585 500.18L525.085 792.846" fill="#0A0A0A"/>
<path d="M653.522 815.55L527.7 527.088L362.491 527.077C323.78 524.042 306.051 502.827 306.615 475.435C307.171 448.39 320.865 421.677 347.788 421.677H570.46C590.38 422.086 606.052 444.1 613.442 462.602L718.042 797.89" fill="#262626"/>
<path d="M295.347 422.008C295.347 422.008 288.01 469.854 299.64 496.455C314.159 529.665 368.587 527.077 368.587 527.077L365.52 421.677L295.347 422.008Z" fill="#262626"/>
<path d="M618.176 421.067L501.476 396.885C496.613 395.877 492.083 393.659 488.305 390.437C484.526 387.214 481.622 383.09 479.86 378.447L433.96 257.494C432.562 253.864 431.896 249.994 431.998 246.105C432.101 242.217 432.971 238.387 434.558 234.836C436.145 231.284 438.418 228.082 441.246 225.412C444.075 222.741 447.403 220.656 451.04 219.276C454.677 217.896 458.55 217.248 462.438 217.369C466.326 217.491 470.152 218.379 473.695 219.983C477.239 221.587 480.43 223.876 483.087 226.717C485.743 229.559 487.812 232.897 489.175 236.54L529.327 342.34L630.162 363.234C630.162 363.234 620.2 421.486 618.176 421.067Z" fill="#8C4BFF"/>
<path d="M483.2 288.209C481.853 304.042 472.3 402.819 471 422.321H295.424C294.415 404.732 291.14 330.055 287.314 295.66C283.663 262.838 282.338 244.108 286.544 233.909C293.962 215.919 312.525 209.446 328.515 207.281C338.278 205.96 352.963 205.012 352.963 205.012C352.963 205.012 354.207 230.165 383.855 231.565C424.214 233.465 421.519 205.012 421.719 205.012C428.257 205.012 463.847 209.767 472.746 215.567C485.316 223.76 489.03 234.924 489.177 245.181C489.346 256.992 484.728 270.253 483.2 288.209Z" fill="#8C4BFF"/>
<path d="M476.3 368.921H476.258C476.193 368.916 476.129 368.897 476.07 368.867C476.012 368.837 475.96 368.796 475.918 368.746C475.875 368.696 475.843 368.638 475.823 368.575C475.803 368.512 475.796 368.447 475.801 368.381L480.359 313.627C480.363 313.561 480.38 313.497 480.409 313.437C480.439 313.378 480.48 313.326 480.53 313.283C480.581 313.24 480.639 313.208 480.703 313.189C480.766 313.169 480.832 313.163 480.898 313.17C480.964 313.176 481.027 313.194 481.086 313.224C481.144 313.254 481.196 313.295 481.238 313.345C481.281 313.396 481.313 313.454 481.333 313.516C481.353 313.579 481.361 313.645 481.355 313.71L476.797 368.464C476.786 368.589 476.729 368.705 476.637 368.789C476.545 368.874 476.425 368.921 476.3 368.921Z" fill="#0C0C0C"/>
<path d="M559.919 401.783L598.443 283.359C599.12 281.278 600.438 279.465 602.209 278.179C603.979 276.893 606.112 276.2 608.3 276.2H775.252C776.888 276.2 778.501 276.587 779.959 277.33C781.417 278.073 782.678 279.15 783.639 280.474C784.601 281.798 785.235 283.331 785.491 284.947C785.746 286.563 785.615 288.216 785.109 289.772L736.585 408.2C735.908 410.281 734.59 412.094 732.819 413.38C731.049 414.666 728.916 415.359 726.728 415.359H569.776C568.14 415.359 566.526 414.972 565.068 414.229C563.61 413.486 562.348 412.408 561.387 411.084C560.425 409.759 559.791 408.226 559.536 406.61C559.281 404.993 559.412 403.339 559.919 401.783Z" fill="#292A2E"/>
<path d="M559.919 401.783L598.443 283.359C599.12 281.278 600.438 279.465 602.209 278.179C603.979 276.893 606.112 276.2 608.3 276.2H775.252C776.888 276.2 778.501 276.587 779.959 277.33C781.417 278.073 782.678 279.15 783.639 280.474C784.601 281.798 785.235 283.331 785.491 284.947C785.746 286.563 785.615 288.216 785.109 289.772L736.585 408.2C735.908 410.281 734.59 412.094 732.819 413.38C731.049 414.666 728.916 415.359 726.728 415.359H569.776C568.14 415.359 566.526 414.972 565.068 414.229C563.61 413.486 562.348 412.408 561.387 411.084C560.425 409.759 559.791 408.226 559.536 406.61C559.281 404.993 559.412 403.339 559.919 401.783Z" fill="#292A2E"/>
<path d="M591.345 405.752H486.281C483.663 405.752 481.541 407.874 481.541 410.492V410.614C481.541 413.232 483.663 415.354 486.281 415.354H591.345C593.963 415.354 596.085 413.232 596.085 410.614V410.492C596.085 407.874 593.963 405.752 591.345 405.752Z" fill="#292A2E"/>
<path d="M591.345 405.752H486.281C483.663 405.752 481.541 407.874 481.541 410.492V410.614C481.541 413.232 483.663 415.354 486.281 415.354H591.345C593.963 415.354 596.085 413.232 596.085 410.614V410.492C596.085 407.874 593.963 405.752 591.345 405.752Z" fill="#292A2E"/>
<path d="M667.514 368.016C676.605 368.016 683.975 360.646 683.975 351.555C683.975 342.464 676.605 335.094 667.514 335.094C658.423 335.094 651.053 342.464 651.053 351.555C651.053 360.646 658.423 368.016 667.514 368.016Z" fill="white"/>
<path d="M551.137 374.042L524.916 364.851L528.68 364.591C529.894 364.483 531.021 363.918 531.834 363.011C532.647 362.103 533.085 360.921 533.06 359.703C533.025 359.075 532.863 358.46 532.583 357.897C532.302 357.334 531.911 356.834 531.431 356.427C530.951 356.02 530.393 355.715 529.792 355.531C529.19 355.347 528.557 355.288 527.932 355.356L481.541 360.286L482.741 375.194C483.115 379.824 484.864 384.237 487.763 387.867C490.662 391.497 494.578 394.179 499.011 395.568L519.101 401.826C520.139 402.172 521.264 402.148 522.286 401.759C523.308 401.371 524.164 400.641 524.71 399.693C525.184 398.827 525.37 397.832 525.239 396.853C525.108 395.874 524.667 394.963 523.982 394.252C524.026 394.221 524.064 394.18 524.092 394.134C524.121 394.087 524.139 394.035 524.147 393.981C524.154 393.928 524.151 393.873 524.136 393.82C524.122 393.768 524.097 393.719 524.063 393.676L527.763 394.837C528.918 395.225 530.177 395.16 531.286 394.655C532.394 394.15 533.27 393.243 533.735 392.117C534.116 391.096 534.124 389.973 533.758 388.947C533.392 387.921 532.676 387.056 531.735 386.506C531.779 386.483 531.817 386.452 531.849 386.414L533.371 386.891C534.409 387.237 535.534 387.213 536.556 386.824C537.578 386.435 538.435 385.705 538.98 384.757C539.555 383.707 539.701 382.475 539.388 381.319C539.075 380.163 538.327 379.173 537.3 378.557C537.309 378.526 537.313 378.495 537.314 378.463L548.234 382.29C548.777 382.486 549.353 382.573 549.93 382.546C550.507 382.518 551.072 382.376 551.594 382.129C552.115 381.881 552.583 381.532 552.969 381.103C553.355 380.674 553.652 380.172 553.843 379.627C554.033 379.082 554.114 378.505 554.081 377.929C554.047 377.352 553.9 376.788 553.647 376.269C553.394 375.75 553.041 375.287 552.608 374.905C552.174 374.523 551.67 374.231 551.123 374.046L551.137 374.042Z" fill="#E98862"/>
<path opacity="0.2" d="M536.9 378.886C536.849 378.886 536.799 378.877 536.751 378.86L526.189 375.019C526.08 374.979 525.992 374.898 525.944 374.793C525.895 374.688 525.89 374.568 525.93 374.46C525.97 374.352 526.051 374.263 526.156 374.215C526.261 374.166 526.381 374.161 526.489 374.201L537.052 378.042C537.148 378.077 537.229 378.145 537.28 378.233C537.332 378.322 537.35 378.426 537.332 378.527C537.314 378.627 537.262 378.719 537.183 378.785C537.105 378.85 537.005 378.886 536.903 378.886H536.9Z" fill="#0A0A0A"/>
<path opacity="0.2" d="M531.559 386.565C531.509 386.565 531.46 386.557 531.413 386.54L523.088 383.586C523.033 383.568 522.982 383.539 522.938 383.501C522.895 383.463 522.859 383.417 522.833 383.365C522.808 383.313 522.793 383.256 522.789 383.198C522.786 383.14 522.794 383.082 522.813 383.028C522.833 382.973 522.863 382.923 522.902 382.88C522.941 382.837 522.988 382.802 523.041 382.778C523.093 382.754 523.15 382.74 523.208 382.738C523.266 382.736 523.324 382.745 523.378 382.766L531.704 385.72C531.801 385.754 531.882 385.822 531.934 385.91C531.986 385.999 532.005 386.103 531.987 386.204C531.97 386.305 531.918 386.396 531.839 386.462C531.761 386.529 531.662 386.565 531.559 386.565Z" fill="#0A0A0A"/>
<path opacity="0.2" d="M523.719 394.358C523.666 394.358 523.614 394.348 523.564 394.329L519.664 392.842C519.556 392.801 519.469 392.718 519.422 392.613C519.375 392.508 519.372 392.388 519.413 392.28C519.454 392.172 519.537 392.085 519.642 392.038C519.747 391.991 519.867 391.988 519.975 392.029L523.875 393.516C523.97 393.552 524.05 393.62 524.1 393.709C524.15 393.798 524.168 393.902 524.149 394.002C524.131 394.102 524.078 394.193 523.999 394.258C523.921 394.323 523.822 394.358 523.72 394.358H523.719Z" fill="#0A0A0A"/>
<path d="M502.074 351.463L392.074 351.389L350.46 249.877L288.382 275.977L340.3 396.456L340.807 397.656C343.347 403.512 347.626 408.446 353.064 411.789C358.501 415.132 364.835 416.724 371.207 416.347L503.735 408.518L502.074 351.463Z" fill="#8C4BFF"/>
<path d="M369.386 416.9C363.219 416.889 357.189 415.082 352.033 411.7C346.877 408.318 342.817 403.506 340.351 397.854L339.843 396.654L295.6 294L296.518 293.6L341.268 397.461C343.779 403.214 347.992 408.059 353.339 411.346C358.686 414.634 364.911 416.205 371.178 415.848L503.221 408.048L501.585 351.965L391.737 351.891L359.737 273.838L360.663 273.46L392.406 350.891L502.556 350.966L504.249 408.989L503.764 409.018L371.24 416.845C370.621 416.882 370 416.9 369.386 416.9Z" fill="#0C0C0C"/>
<path d="M247.035 424.943L204.849 842.289L206.839 842.49L249.025 425.144L247.035 424.943Z" fill="#494949"/>
<path d="M421.333 424.943L379.147 842.289L381.137 842.49L423.323 425.144L421.333 424.943Z" fill="#494949"/>
<path d="M784.769 424.937L782.779 425.138L824.936 842.487L826.926 842.286L784.769 424.937Z" fill="#494949"/>
<path d="M822.784 416.845H211.781C207.255 416.845 203.587 420.513 203.587 425.038C203.587 429.564 207.255 433.232 211.781 433.232H822.784C827.309 433.232 830.978 429.564 830.978 425.038C830.978 420.513 827.309 416.845 822.784 416.845Z" fill="#292A2E"/>
<path opacity="0.8" d="M822.784 416.845H211.781C207.255 416.845 203.587 420.513 203.587 425.038C203.587 429.564 207.255 433.232 211.781 433.232H822.784C827.309 433.232 830.978 429.564 830.978 425.038C830.978 420.513 827.309 416.845 822.784 416.845Z" fill="white"/>
<path d="M822.785 434.232H211.785C210.57 434.245 209.364 434.016 208.237 433.56C207.111 433.104 206.086 432.428 205.222 431.573C204.358 430.718 203.672 429.701 203.204 428.579C202.736 427.457 202.495 426.254 202.495 425.038C202.495 423.823 202.736 422.62 203.204 421.498C203.672 420.376 204.358 419.358 205.222 418.504C206.086 417.649 207.111 416.973 208.237 416.517C209.364 416.061 210.57 415.832 211.785 415.845H822.785C824 415.832 825.206 416.061 826.333 416.517C827.459 416.973 828.484 417.649 829.348 418.504C830.212 419.358 830.898 420.376 831.366 421.498C831.834 422.62 832.075 423.823 832.075 425.038C832.075 426.254 831.834 427.457 831.366 428.579C830.898 429.701 830.212 430.718 829.348 431.573C828.484 432.428 827.459 433.104 826.333 433.56C825.206 434.016 824 434.245 822.785 434.232ZM211.785 417.845C210.833 417.834 209.889 418.012 209.006 418.368C208.123 418.724 207.32 419.253 206.643 419.922C205.966 420.591 205.429 421.388 205.062 422.266C204.695 423.144 204.506 424.087 204.506 425.038C204.506 425.99 204.695 426.933 205.062 427.811C205.429 428.689 205.966 429.486 206.643 430.155C207.32 430.824 208.123 431.352 209.006 431.709C209.889 432.065 210.833 432.243 211.785 432.232H822.785C823.737 432.243 824.681 432.065 825.564 431.709C826.447 431.352 827.25 430.824 827.927 430.155C828.604 429.486 829.141 428.689 829.508 427.811C829.875 426.933 830.064 425.99 830.064 425.038C830.064 424.087 829.875 423.144 829.508 422.266C829.141 421.388 828.604 420.591 827.927 419.922C827.25 419.253 826.447 418.724 825.564 418.368C824.681 418.012 823.737 417.834 822.785 417.845H211.785Z" fill="#292A2E"/>
<path d="M822.784 416.845H392.742C388.216 416.845 384.548 420.513 384.548 425.038C384.548 429.564 388.216 433.232 392.742 433.232H822.784C827.309 433.232 830.978 429.564 830.978 425.038C830.978 420.513 827.309 416.845 822.784 416.845Z" fill="white"/>
<path d="M822.785 434.232H392.742C390.32 434.207 388.006 433.227 386.303 431.506C384.599 429.784 383.644 427.46 383.644 425.038C383.644 422.617 384.599 420.293 386.303 418.571C388.006 416.85 390.32 415.87 392.742 415.845H822.785C824 415.832 825.206 416.061 826.333 416.517C827.459 416.973 828.484 417.649 829.348 418.504C830.212 419.358 830.898 420.376 831.366 421.498C831.834 422.62 832.075 423.823 832.075 425.038C832.075 426.254 831.834 427.457 831.366 428.579C830.898 429.701 830.212 430.718 829.348 431.573C828.484 432.428 827.459 433.104 826.333 433.56C825.206 434.016 824 434.245 822.785 434.232ZM392.742 417.845C390.849 417.867 389.041 418.635 387.71 419.982C386.379 421.328 385.633 423.145 385.633 425.038C385.633 426.932 386.379 428.749 387.71 430.095C389.041 431.442 390.849 432.21 392.742 432.232H822.785C823.737 432.243 824.681 432.065 825.564 431.709C826.446 431.352 827.25 430.824 827.927 430.155C828.604 429.486 829.141 428.689 829.508 427.811C829.875 426.933 830.064 425.99 830.064 425.038C830.064 424.087 829.875 423.144 829.508 422.266C829.141 421.388 828.604 420.591 827.927 419.922C827.25 419.253 826.446 418.724 825.564 418.368C824.681 418.012 823.737 417.834 822.785 417.845H392.742Z" fill="#292A2E"/>
<path d="M839.265 709.44C839.134 709.44 839.003 709.415 838.882 709.364C838.761 709.314 838.651 709.24 838.558 709.147C837.149 707.739 834.852 681.889 828.666 604.924C826.135 573.432 823.744 543.686 821.999 525.609C821.875 524.318 821.374 524.168 821.21 524.119C818.821 523.398 811.558 529.125 807.503 534.141C807.336 534.347 807.094 534.479 806.83 534.507C806.566 534.535 806.302 534.457 806.096 534.29C805.89 534.123 805.758 533.881 805.73 533.617C805.702 533.354 805.78 533.089 805.947 532.883C808.629 529.567 817.369 520.874 821.785 522.203C822.675 522.471 823.785 523.245 823.99 525.417C825.737 543.51 828.128 573.264 830.66 604.764C834.419 651.534 838.677 704.52 840.077 707.857C840.184 708.006 840.248 708.182 840.262 708.366C840.275 708.549 840.238 708.733 840.154 708.896C840.07 709.06 839.943 709.197 839.786 709.293C839.629 709.389 839.449 709.44 839.265 709.44Z" fill="#494949"/>
<path d="M819.43 558.781C836.024 545.479 841.523 524.776 831.714 512.539C821.905 500.301 800.501 501.163 783.907 514.465C767.313 527.766 761.813 548.469 771.623 560.707C781.432 572.944 802.836 572.082 819.43 558.781Z" fill="#0CBC8B"/>
<path opacity="0.2" d="M819.43 558.781C836.024 545.479 841.523 524.776 831.714 512.539C821.905 500.301 800.501 501.163 783.907 514.465C767.313 527.766 761.813 548.469 771.623 560.707C781.432 572.944 802.836 572.082 819.43 558.781Z" fill="white"/>
<path d="M776.275 563.819C776.18 563.819 776.087 563.792 776.007 563.741C775.927 563.69 775.863 563.618 775.822 563.532C775.782 563.446 775.767 563.35 775.779 563.256C775.791 563.162 775.829 563.073 775.89 563L823.181 505.971C823.266 505.869 823.387 505.805 823.52 505.792C823.652 505.78 823.783 505.821 823.885 505.906C823.987 505.99 824.052 506.112 824.064 506.244C824.076 506.376 824.036 506.508 823.951 506.61L776.66 563.639C776.613 563.695 776.554 563.741 776.487 563.772C776.421 563.803 776.348 563.819 776.275 563.819Z" fill="white"/>
<path d="M849.579 697.215C849.419 697.215 849.262 697.177 849.12 697.104C848.979 697.03 848.856 696.924 848.764 696.794C848.672 696.664 848.612 696.514 848.589 696.356C848.567 696.198 848.583 696.037 848.635 695.886L866.4 644.8C866.923 643.299 867.814 641.953 868.992 640.886C870.17 639.819 871.597 639.064 873.142 638.691C874.687 638.318 876.301 638.339 877.836 638.752C879.371 639.164 880.778 639.955 881.928 641.052L891.32 650.023C891.512 650.206 891.623 650.458 891.629 650.724C891.635 650.989 891.536 651.246 891.352 651.437C891.169 651.629 890.917 651.741 890.652 651.747C890.387 651.753 890.13 651.653 889.938 651.47L880.547 642.498C879.639 641.632 878.528 641.007 877.316 640.682C876.104 640.356 874.83 640.34 873.611 640.634C872.391 640.929 871.264 641.525 870.334 642.367C869.405 643.21 868.701 644.272 868.288 645.457L850.525 696.544C850.457 696.74 850.329 696.91 850.159 697.031C849.99 697.151 849.787 697.215 849.579 697.215Z" fill="#494949"/>
<path d="M917.556 678.307C929.854 668.573 929.123 647.164 915.924 630.489C902.725 613.814 882.056 608.187 869.758 617.921C857.461 627.655 858.192 649.064 871.391 665.739C884.59 682.414 905.259 688.041 917.556 678.307Z" fill="#0CBC8B"/>
<path d="M831.2 706.182C830.975 706.182 830.757 706.106 830.581 705.967C830.405 705.828 830.28 705.633 830.228 705.415L800.412 580.77C800.208 579.921 799.774 579.144 799.157 578.525C798.54 577.907 797.765 577.47 796.916 577.263C796.068 577.056 795.178 577.088 794.346 577.354C793.514 577.619 792.772 578.11 792.2 578.77L783.01 589.39C782.924 589.491 782.82 589.574 782.702 589.634C782.584 589.694 782.456 589.73 782.324 589.74C782.192 589.75 782.06 589.734 781.934 589.693C781.809 589.651 781.693 589.585 781.593 589.499C781.493 589.412 781.411 589.307 781.352 589.189C781.294 589.07 781.259 588.942 781.25 588.81C781.241 588.678 781.258 588.546 781.301 588.421C781.344 588.295 781.41 588.18 781.498 588.081L790.687 577.462C791.5 576.523 792.555 575.826 793.739 575.448C794.922 575.071 796.186 575.027 797.392 575.321C798.599 575.615 799.701 576.237 800.577 577.117C801.453 577.997 802.069 579.102 802.358 580.31L832.168 704.954C832.228 705.211 832.184 705.482 832.045 705.707C831.907 705.931 831.685 706.092 831.428 706.154C831.353 706.172 831.277 706.182 831.2 706.182Z" fill="#494949"/>
<path d="M820.2 617.08C823.824 596.124 814.233 576.97 798.779 574.297C783.324 571.625 767.858 586.446 764.234 607.402C760.611 628.358 770.201 647.512 785.656 650.185C801.11 652.857 816.576 638.036 820.2 617.08Z" fill="#0CBC8B"/>
<path d="M839.266 709.44C839.225 709.44 839.184 709.438 839.143 709.433C839.013 709.417 838.887 709.376 838.772 709.311C838.658 709.246 838.557 709.16 838.476 709.056C838.395 708.952 838.336 708.834 838.301 708.707C838.266 708.581 838.256 708.448 838.272 708.318L857.308 553.761C857.515 552.077 858.205 550.489 859.293 549.188C860.381 547.887 861.822 546.928 863.443 546.425C865.063 545.923 866.794 545.9 868.427 546.358C870.061 546.816 871.527 547.737 872.65 549.008L894.408 573.651C894.584 573.85 894.673 574.11 894.656 574.375C894.64 574.64 894.519 574.887 894.32 575.063C894.121 575.239 893.861 575.328 893.596 575.311C893.331 575.295 893.084 575.174 892.908 574.975L871.15 550.332C870.282 549.349 869.149 548.638 867.887 548.284C866.624 547.929 865.286 547.947 864.034 548.335C862.782 548.723 861.668 549.465 860.827 550.471C859.986 551.476 859.453 552.704 859.293 554.005L840.258 708.562C840.228 708.804 840.111 709.027 839.928 709.189C839.745 709.351 839.51 709.44 839.266 709.44Z" fill="#494949"/>
<path d="M916.724 587.346C924.316 573.622 915.384 554.151 896.774 543.858C878.164 533.564 856.924 536.345 849.333 550.069C841.741 563.793 850.673 583.263 869.283 593.557C887.893 603.851 909.133 601.07 916.724 587.346Z" fill="#0CBC8B"/>
<path opacity="0.2" d="M917.556 678.307C929.854 668.573 929.123 647.164 915.924 630.489C902.725 613.814 882.056 608.187 869.758 617.921C857.461 627.655 858.192 649.064 871.391 665.739C884.59 682.414 905.259 688.041 917.556 678.307Z" fill="white"/>
<path opacity="0.5" d="M820.2 617.08C823.824 596.124 814.233 576.97 798.779 574.297C783.324 571.625 767.858 586.446 764.234 607.402C760.611 628.358 770.201 647.512 785.656 650.185C801.11 652.857 816.576 638.036 820.2 617.08Z" fill="white"/>
<path opacity="0.5" d="M916.724 587.346C924.316 573.622 915.384 554.151 896.774 543.858C878.164 533.564 856.924 536.345 849.333 550.069C841.741 563.793 850.673 583.263 869.283 593.557C887.893 603.851 909.133 601.07 916.724 587.346Z" fill="white"/>
<path d="M863.613 840.582H814.917L806.847 684.778H871.682L863.613 840.582Z" fill="#292A2E"/>
<path opacity="0.3" d="M863.613 840.582H814.917L806.847 684.778H871.682L863.613 840.582Z" fill="white"/>
<path d="M917.558 678.8C917.482 678.8 917.408 678.783 917.34 678.75C917.272 678.717 917.213 678.669 917.166 678.61L869.366 618.224C869.284 618.12 869.246 617.988 869.261 617.856C869.276 617.724 869.343 617.604 869.447 617.521C869.551 617.439 869.684 617.401 869.816 617.417C869.947 617.432 870.068 617.499 870.15 617.603L917.95 677.989C918.008 678.063 918.045 678.151 918.055 678.245C918.066 678.338 918.05 678.433 918.009 678.518C917.968 678.602 917.904 678.674 917.824 678.724C917.744 678.774 917.652 678.8 917.558 678.8Z" fill="white"/>
<path d="M913.545 592.184C913.438 592.183 913.335 592.148 913.25 592.084L852.084 547.422C851.977 547.344 851.905 547.226 851.885 547.095C851.864 546.964 851.897 546.83 851.975 546.723C852.053 546.616 852.171 546.544 852.302 546.524C852.433 546.503 852.567 546.536 852.674 546.614L913.84 591.277C913.924 591.34 913.986 591.428 914.017 591.528C914.048 591.628 914.047 591.736 914.014 591.835C913.981 591.935 913.917 592.021 913.832 592.083C913.747 592.144 913.645 592.177 913.54 592.177L913.545 592.184Z" fill="white"/>
<path d="M783.17 649.533C783.126 649.533 783.083 649.527 783.041 649.515C782.913 649.481 782.804 649.397 782.738 649.283C782.671 649.168 782.653 649.032 782.687 648.904L802.158 575.951C802.195 575.826 802.279 575.721 802.393 575.657C802.506 575.593 802.64 575.576 802.766 575.61C802.892 575.643 802.999 575.725 803.066 575.836C803.133 575.948 803.154 576.081 803.124 576.208L783.653 649.161C783.625 649.268 783.562 649.362 783.475 649.429C783.387 649.496 783.28 649.533 783.17 649.533Z" fill="white"/>
<path d="M887.122 841.986H186.7C186.514 841.986 186.336 841.912 186.205 841.781C186.074 841.65 186 841.472 186 841.286C186 841.1 186.074 840.922 186.205 840.791C186.336 840.66 186.514 840.586 186.7 840.586H887.12C887.306 840.586 887.484 840.66 887.615 840.791C887.746 840.922 887.82 841.1 887.82 841.286C887.82 841.472 887.746 841.65 887.615 841.781C887.484 841.912 887.306 841.986 887.12 841.986H887.122Z" fill="#292A2E"/>
<g opacity="0.65">
<path d="M887.122 841.986H186.7C186.514 841.986 186.336 841.912 186.205 841.781C186.074 841.65 186 841.472 186 841.286C186 841.1 186.074 840.922 186.205 840.791C186.336 840.66 186.514 840.586 186.7 840.586H887.12C887.306 840.586 887.484 840.66 887.615 840.791C887.746 840.922 887.82 841.1 887.82 841.286C887.82 841.472 887.746 841.65 887.615 841.781C887.484 841.912 887.306 841.986 887.12 841.986H887.122Z" fill="#292A2E"/>
</g>
</g>
<path d="M85.4038 711.059C85.2724 711.06 85.1422 711.034 85.0209 710.984C84.8995 710.933 84.7893 710.86 84.6967 710.766C83.2877 709.358 80.9908 683.508 74.8048 606.543C72.2738 575.051 69.8828 545.305 68.1378 527.228C68.0138 525.937 67.5128 525.787 67.3488 525.738C64.9598 525.017 57.6967 530.744 53.6417 535.76C53.4749 535.967 53.233 536.098 52.9691 536.126C52.7053 536.154 52.4411 536.076 52.2348 535.909C52.0284 535.743 51.8968 535.501 51.8688 535.237C51.8409 534.973 51.9189 534.709 52.0858 534.502C54.7678 531.186 63.5077 522.493 67.9237 523.822C68.8137 524.09 69.9237 524.864 70.1287 527.036C71.8757 545.129 74.2667 574.883 76.7987 606.383C80.5577 653.153 84.8158 706.139 86.2158 709.476C86.323 709.626 86.3869 709.802 86.4005 709.985C86.4142 710.169 86.377 710.352 86.293 710.516C86.2091 710.679 86.0817 710.817 85.9248 710.913C85.7679 711.009 85.5876 711.059 85.4038 711.059V711.059Z" fill="#494949"/>
<path d="M65.5686 560.4C82.1624 547.099 87.6622 526.396 77.8529 514.158C68.0435 501.92 46.6395 502.783 30.0457 516.084C13.4519 529.385 7.95206 550.089 17.7614 562.326C27.5708 574.564 48.9748 573.701 65.5686 560.4Z" fill="#0CBC8B"/>
<path opacity="0.2" d="M65.5686 560.4C82.1624 547.099 87.6622 526.396 77.8529 514.158C68.0435 501.92 46.6395 502.783 30.0457 516.084C13.4519 529.385 7.95206 550.089 17.7614 562.326C27.5708 574.564 48.9748 573.701 65.5686 560.4Z" fill="white"/>
<path d="M22.4138 565.438C22.3189 565.438 22.226 565.411 22.1458 565.36C22.0657 565.31 22.0017 565.237 21.9613 565.151C21.9209 565.065 21.9058 564.97 21.9178 564.875C21.9297 564.781 21.9683 564.692 22.0288 564.619L69.3198 507.59C69.4046 507.488 69.5264 507.424 69.6585 507.412C69.7906 507.399 69.9222 507.44 70.0243 507.525C70.1264 507.61 70.1907 507.731 70.203 507.864C70.2152 507.996 70.1745 508.127 70.0898 508.229L22.7988 565.258C22.7518 565.315 22.6929 565.36 22.6264 565.391C22.5598 565.422 22.4873 565.438 22.4138 565.438V565.438Z" fill="white"/>
<path d="M95.7179 698.834C95.5583 698.834 95.4011 698.796 95.2593 698.723C95.1176 698.65 94.9954 698.544 94.903 698.413C94.8106 698.283 94.7507 698.133 94.7282 697.975C94.7058 697.817 94.7214 697.656 94.7739 697.505L112.539 646.419C113.062 644.918 113.953 643.573 115.131 642.506C116.309 641.438 117.736 640.684 119.281 640.311C120.826 639.938 122.44 639.959 123.975 640.371C125.51 640.783 126.917 641.574 128.067 642.671L137.459 651.642C137.651 651.826 137.762 652.078 137.768 652.343C137.774 652.608 137.675 652.865 137.491 653.057C137.308 653.249 137.056 653.36 136.791 653.366C136.526 653.372 136.269 653.273 136.077 653.089L126.686 644.117C125.778 643.251 124.667 642.627 123.455 642.301C122.243 641.976 120.969 641.959 119.749 642.254C118.53 642.548 117.403 643.144 116.473 643.986C115.543 644.829 114.84 645.891 114.427 647.076L96.6639 698.163C96.5956 698.36 96.4677 698.53 96.2982 698.65C96.1286 698.77 95.9258 698.835 95.7179 698.834Z" fill="#494949"/>
<path d="M163.695 679.926C175.993 670.192 175.262 648.783 162.063 632.108C148.864 615.433 128.195 609.806 115.897 619.54C103.6 629.274 104.331 650.683 117.53 667.358C130.729 684.033 151.398 689.66 163.695 679.926Z" fill="#0CBC8B"/>
<path d="M77.3388 707.801C77.1142 707.801 76.8962 707.726 76.7198 707.586C76.5435 707.447 76.4192 707.253 76.3669 707.034L46.5508 582.389C46.3469 581.54 45.9127 580.763 45.2961 580.145C44.6794 579.526 43.9041 579.089 43.0553 578.883C42.2066 578.676 41.3174 578.707 40.4853 578.973C39.6532 579.239 38.9105 579.729 38.3388 580.389L29.1488 591.009C29.0633 591.11 28.9587 591.193 28.841 591.253C28.7233 591.313 28.5949 591.349 28.4631 591.359C28.3314 591.369 28.1989 591.353 28.0734 591.312C27.9479 591.271 27.8319 591.205 27.732 591.118C27.6321 591.032 27.5503 590.926 27.4914 590.808C27.4325 590.69 27.3976 590.561 27.3887 590.429C27.3799 590.297 27.3973 590.165 27.4399 590.04C27.4824 589.915 27.5494 589.799 27.6368 589.7L36.8258 579.081C37.6385 578.142 38.6944 577.446 39.8774 577.068C41.0605 576.69 42.3248 576.646 43.5313 576.94C44.7378 577.235 45.8397 577.856 46.7157 578.737C47.5918 579.617 48.2081 580.722 48.4968 581.929L78.3069 706.573C78.367 706.831 78.3229 707.101 78.1842 707.326C78.0456 707.551 77.8236 707.712 77.5668 707.773C77.4922 707.792 77.4157 707.801 77.3388 707.801V707.801Z" fill="#494949"/>
<path d="M66.3386 618.699C69.9625 597.743 60.372 578.589 44.9175 575.917C29.4631 573.244 13.9972 588.066 10.3733 609.021C6.74947 629.977 16.3401 649.132 31.7945 651.804C47.2489 654.477 62.7148 639.655 66.3386 618.699Z" fill="#0CBC8B"/>
<path d="M85.4048 711.059C85.3637 711.06 85.3227 711.057 85.2819 711.052C85.1514 711.036 85.0255 710.995 84.9111 710.93C84.7967 710.866 84.6962 710.779 84.6153 710.675C84.5344 710.572 84.4747 710.453 84.4396 710.327C84.4046 710.2 84.3947 710.068 84.4108 709.937L103.447 555.38C103.654 553.697 104.344 552.109 105.432 550.808C106.52 549.506 107.961 548.547 109.582 548.045C111.202 547.543 112.933 547.519 114.566 547.978C116.2 548.436 117.666 549.356 118.789 550.627L140.547 575.27C140.722 575.469 140.812 575.73 140.795 575.995C140.779 576.259 140.658 576.507 140.459 576.682C140.26 576.858 139.999 576.947 139.735 576.931C139.47 576.914 139.222 576.793 139.047 576.594L117.289 551.951C116.421 550.969 115.288 550.257 114.026 549.903C112.763 549.549 111.425 549.567 110.173 549.955C108.921 550.343 107.807 551.084 106.966 552.09C106.125 553.096 105.592 554.323 105.432 555.624L86.3969 710.181C86.3671 710.424 86.2498 710.647 86.0671 710.808C85.8844 710.97 85.6488 711.059 85.4048 711.059V711.059Z" fill="#494949"/>
<path d="M162.863 588.965C170.454 575.241 161.523 555.771 142.913 545.477C124.303 535.183 103.063 537.964 95.4718 551.688C87.8804 565.412 96.8124 584.883 115.422 595.176C134.031 605.47 155.272 602.689 162.863 588.965Z" fill="#0CBC8B"/>
<path opacity="0.2" d="M163.695 679.926C175.993 670.192 175.262 648.783 162.063 632.108C148.864 615.433 128.195 609.806 115.897 619.54C103.6 629.274 104.331 650.683 117.53 667.358C130.729 684.033 151.398 689.66 163.695 679.926Z" fill="white"/>
<path opacity="0.5" d="M66.3386 618.699C69.9625 597.743 60.372 578.589 44.9175 575.917C29.4631 573.244 13.9972 588.066 10.3733 609.021C6.74947 629.977 16.3401 649.132 31.7945 651.804C47.2489 654.477 62.7148 639.655 66.3386 618.699Z" fill="white"/>
<path opacity="0.5" d="M162.863 588.965C170.454 575.241 161.523 555.771 142.913 545.477C124.303 535.183 103.063 537.964 95.4718 551.688C87.8804 565.412 96.8124 584.883 115.422 595.176C134.031 605.47 155.272 602.689 162.863 588.965Z" fill="white"/>
<path d="M109.752 842.201H61.0558L52.9858 686.397H117.821L109.752 842.201Z" fill="#292A2E"/>
<path opacity="0.3" d="M109.752 842.201H61.0558L52.9858 686.397H117.821L109.752 842.201Z" fill="white"/>
<path d="M163.697 680.419C163.621 680.419 163.547 680.402 163.479 680.369C163.411 680.336 163.352 680.289 163.305 680.229L115.505 619.843C115.423 619.739 115.385 619.607 115.4 619.475C115.415 619.344 115.482 619.223 115.586 619.141C115.69 619.058 115.823 619.021 115.954 619.036C116.086 619.051 116.207 619.118 116.289 619.222L164.089 679.608C164.147 679.682 164.184 679.771 164.194 679.864C164.205 679.958 164.188 680.052 164.147 680.137C164.107 680.222 164.043 680.293 163.963 680.343C163.883 680.393 163.791 680.419 163.697 680.419V680.419Z" fill="white"/>
<path d="M159.684 593.803C159.577 593.802 159.474 593.767 159.389 593.703L98.2228 549.041C98.1157 548.963 98.044 548.846 98.0236 548.714C98.0031 548.583 98.0356 548.45 98.1138 548.342C98.1921 548.235 98.3097 548.164 98.4408 548.143C98.5719 548.123 98.7057 548.155 98.8129 548.233L159.979 592.896C160.063 592.959 160.125 593.047 160.156 593.147C160.187 593.247 160.186 593.355 160.153 593.455C160.12 593.554 160.056 593.641 159.971 593.702C159.886 593.763 159.784 593.796 159.679 593.796L159.684 593.803Z" fill="white"/>
<path d="M29.3087 651.152C29.2651 651.152 29.2217 651.146 29.1797 651.134C29.0519 651.1 28.9428 651.017 28.8765 650.902C28.8101 650.788 28.7919 650.651 28.8257 650.523L48.2968 577.57C48.3338 577.446 48.4179 577.34 48.5314 577.276C48.645 577.213 48.7789 577.196 48.9047 577.229C49.0305 577.263 49.1382 577.344 49.2051 577.456C49.2719 577.567 49.2927 577.701 49.2628 577.827L29.7917 650.78C29.7635 650.887 29.7008 650.981 29.6135 651.049C29.5261 651.116 29.419 651.152 29.3087 651.152V651.152Z" fill="white"/>
<defs>
<clipPath id="clip0_22_173">
<rect width="740.323" height="842.489" fill="white" transform="translate(186)"/>
</clipPath>
</defs>
</svg>
